<svg width="128" height="128" viewBox="0 0 128 128" fill="none" xmlns="http://www.w3.org/2000/svg">
<rect width="128" height="128" rx="40" fill="#64F5B7"/>
<path d="M66.688 111.716C60.22 111.716 54.214 110.462 48.67 107.954C43.17 105.446 38.374 101.992 34.282 97.592C30.19 93.148 27 88.022 24.712 82.214C22.424 76.406 21.28 70.224 21.28 63.668C21.28 56.584 22.534 50.138 25.042 44.33C27.594 38.522 31.026 33.506 35.338 29.282C39.694 25.014 44.6 21.736 50.056 19.448C55.556 17.16 61.232 16.016 67.084 16.016C73.508 16.016 79.844 17.512 86.092 20.504C92.34 23.496 97.972 28.336 102.988 35.024L85.3 44.528C82.616 41.492 79.668 39.27 76.456 37.862C73.288 36.41 70.076 35.684 66.82 35.684C63.52 35.684 60.33 36.366 57.25 37.73C54.17 39.094 51.42 41.03 49 43.538C46.58 46.046 44.644 49.038 43.192 52.514C41.784 55.99 41.08 59.84 41.08 64.064C41.08 67.936 41.74 71.566 43.06 74.954C44.424 78.342 46.294 81.312 48.67 83.864C51.046 86.372 53.796 88.352 56.92 89.804C60.044 91.212 63.388 91.916 66.952 91.916C68.976 91.916 70.978 91.652 72.958 91.124C74.982 90.552 76.94 89.716 78.832 88.616C80.724 87.516 82.506 86.108 84.178 84.392C85.85 82.676 87.368 80.652 88.732 78.32H76.324V61.16H112.096C112.448 68.068 111.502 74.58 109.258 80.696C107.058 86.768 103.868 92.136 99.688 96.8C95.508 101.464 90.602 105.116 84.97 107.756C79.338 110.396 73.244 111.716 66.688 111.716Z" fill="black"/>
</svg>
